<svg width="13" height="15" viewBox="0 0 13 15" fill="none" xmlns="http://www.w3.org/2000/svg">
<path d="M10.1844 9.29115C10.1172 9.46142 10.0972 9.65029 10.1269 9.83342C10.1565 10.0165 10.2345 10.1855 10.3508 10.3186L10.3811 10.3524C10.4749 10.4573 10.5493 10.5818 10.6 10.7189C10.6508 10.8559 10.6769 11.0029 10.6769 11.1512C10.6769 11.2996 10.6508 11.4465 10.6 11.5836C10.5493 11.7206 10.4749 11.8452 10.3811 11.95C10.2874 12.055 10.1761 12.1383 10.0537 12.1951C9.93123 12.2519 9.79997 12.2811 9.66741 12.2811C9.53485 12.2811 9.40359 12.2519 9.28113 12.1951C9.15867 12.1383 9.04742 12.055 8.95374 11.95L8.92348 11.9161C8.80461 11.786 8.65364 11.6987 8.49003 11.6655C8.32642 11.6323 8.15767 11.6547 8.00555 11.7299C7.85637 11.8014 7.72915 11.9202 7.63954 12.0717C7.54992 12.2231 7.50183 12.4006 7.50119 12.5823V12.6782C7.50119 12.9777 7.39491 13.2649 7.20574 13.4766C7.01657 13.6883 6.76 13.8073 6.49247 13.8073C6.22494 13.8073 5.96837 13.6883 5.7792 13.4766C5.59003 13.2649 5.48375 12.9777 5.48375 12.6782V12.6274C5.47985 12.4406 5.42581 12.2594 5.32867 12.1073C5.23152 11.9553 5.09577 11.8395 4.93904 11.775C4.78692 11.6999 4.61817 11.6775 4.45456 11.7107C4.29095 11.7439 4.13998 11.8312 4.02111 11.9613L3.99085 11.9952C3.89717 12.1002 3.78592 12.1834 3.66346 12.2402C3.541 12.2971 3.40974 12.3263 3.27718 12.3263C3.14462 12.3263 3.01336 12.2971 2.8909 12.2402C2.76845 12.1834 2.6572 12.1002 2.56351 11.9952C2.46973 11.8903 2.39533 11.7658 2.34456 11.6287C2.2938 11.4917 2.26767 11.3448 2.26767 11.1964C2.26767 11.048 2.2938 10.9011 2.34456 10.764C2.39533 10.627 2.46973 10.5025 2.56351 10.3976L2.59378 10.3637C2.71005 10.2307 2.78805 10.0617 2.81771 9.87858C2.84738 9.69545 2.82735 9.50658 2.76021 9.33631C2.69628 9.16935 2.59012 9.02695 2.45481 8.92665C2.31949 8.82635 2.16093 8.77252 1.99863 8.7718H1.91289C1.64536 8.7718 1.38879 8.65285 1.19962 8.44111C1.01045 8.22938 0.904175 7.94221 0.904175 7.64277C0.904175 7.34333 1.01045 7.05616 1.19962 6.84442C1.38879 6.63269 1.64536 6.51374 1.91289 6.51374H1.95828C2.12522 6.50937 2.28713 6.44888 2.42295 6.34015C2.55877 6.23142 2.66223 6.07948 2.71987 5.90406C2.787 5.73379 2.80703 5.54492 2.77737 5.36179C2.7477 5.17867 2.6697 5.00969 2.55343 4.87664L2.52317 4.84277C2.42938 4.73792 2.35498 4.6134 2.30421 4.47633C2.25345 4.33927 2.22732 4.19236 2.22732 4.04398C2.22732 3.89561 2.25345 3.74869 2.30421 3.61163C2.35498 3.47457 2.42938 3.35005 2.52317 3.24519C2.61685 3.14022 2.7281 3.05694 2.85056 3.00013C2.97301 2.94331 3.10427 2.91406 3.23683 2.91406C3.36939 2.91406 3.50066 2.94331 3.62311 3.00013C3.74557 3.05694 3.85682 3.14022 3.9505 3.24519L3.98076 3.27907C4.09963 3.40921 4.2506 3.49651 4.41421 3.52971C4.57783 3.56292 4.74657 3.5405 4.8987 3.46536H4.93904C5.08822 3.3938 5.21544 3.27498 5.30505 3.12352C5.39467 2.97207 5.44276 2.79459 5.4434 2.61294V2.51697C5.4434 2.21753 5.54968 1.93036 5.73885 1.71862C5.92802 1.50689 6.18459 1.38794 6.45212 1.38794C6.71965 1.38794 6.97622 1.50689 7.16539 1.71862C7.35456 1.93036 7.46084 2.21753 7.46084 2.51697V2.56778C7.46149 2.74943 7.50958 2.92691 7.59919 3.07836C7.6888 3.22981 7.81602 3.34863 7.9652 3.42019C8.11732 3.49534 8.28607 3.51776 8.44968 3.48455C8.61329 3.45135 8.76426 3.36405 8.88313 3.2339L8.91339 3.20003C9.00707 3.09506 9.11832 3.01178 9.24078 2.95497C9.36324 2.89815 9.4945 2.8689 9.62706 2.8689C9.75962 2.8689 9.89088 2.89815 10.0133 2.95497C10.1358 3.01178 10.247 3.09506 10.3407 3.20003C10.4345 3.30489 10.5089 3.42941 10.5597 3.56647C10.6104 3.70353 10.6366 3.85045 10.6366 3.99882C10.6366 4.14719 10.6104 4.29411 10.5597 4.43117C10.5089 4.56824 10.4345 4.69275 10.3407 4.79761L10.3105 4.83148C10.1942 4.96453 10.1162 5.13351 10.0865 5.31663C10.0569 5.49976 10.0769 5.68863 10.144 5.8589V5.90406C10.208 6.07103 10.3141 6.21342 10.4494 6.31373C10.5847 6.41403 10.7433 6.46785 10.9056 6.46858H10.9913C11.2589 6.46858 11.5154 6.58753 11.7046 6.79926C11.8938 7.011 12.0001 7.29817 12.0001 7.59761C12.0001 7.89704 11.8938 8.18422 11.7046 8.39595C11.5154 8.60769 11.2589 8.72664 10.9913 8.72664H10.946C10.7837 8.72736 10.6251 8.78119 10.4898 8.88149C10.3545 8.98179 10.2483 9.12419 10.1844 9.29115V9.29115Z" stroke="white" stroke-width="1.2" stroke-linecap="round" stroke-linejoin="round"/>
</svg>
